<svg height="512" viewBox="0 0 64 64" width="512" xmlns="http://www.w3.org/2000/svg"><g id="outline"><path d="m40.65 44.66h-15a1 1 0 0 0 -1 1v12a1 1 0 0 0 1 1h15a1 1 0 0 0 1-1v-12a1 1 0 0 0 -1-1zm-1 12h-13v-10h5.5v1a1 1 0 0 0 2 0v-1h5.5z"/><path d="m58.65 44.66h-15a1 1 0 0 0 -1 1v12a1 1 0 0 0 1 1h15a1 1 0 0 0 1-1v-12a1 1 0 0 0 -1-1zm-1 12h-13v-10h5.5v1a1 1 0 0 0 2 0v-1h5.5z"/><path d="m58.65 29.66h-15a1 1 0 0 0 -1 1v12a1 1 0 0 0 1 1h15a1 1 0 0 0 1-1v-12a1 1 0 0 0 -1-1zm-1 12h-13v-10h5.5v1a1 1 0 0 0 2 0v-1h5.5z"/><path d="m43.52 27.63a1 1 0 0 0 .71-1.23l-.88-3.29 3-2.53.08-.07a19.15 19.15 0 0 0 4.37-7.4 18.94 18.94 0 0 0 .85-6.78 1 1 0 0 0 -.92-.94 18.42 18.42 0 0 0 -6.7.75 18.71 18.71 0 0 0 -7.57 4.54l-2.54 3-5.92-1.61a1 1 0 0 0 0-1.41 1 1 0 0 0 -1.42 0l-.7.7a1.53 1.53 0 0 0 -.11.16l-4.5-1.21.36-.36a1 1 0 0 0 0-1.42 1 1 0 0 0 -1.41 0l-1.22 1.16-8.61-2.3a1 1 0 0 0 -1.13.46l-2.33 4.15a1 1 0 0 0 -.11.76 1 1 0 0 0 .48.61l18.08 10.3-10 11.7-8.54-.91a1 1 0 0 0 -.93.43l-1.39 2.02a1 1 0 0 0 -.13.84 1 1 0 0 0 .55.64l7.5 3.35 2.83 2.83 3.35 7.5a1 1 0 0 0 .64.55.84.84 0 0 0 .27 0 1.06 1.06 0 0 0 .57-.17l2.07-1.41a1 1 0 0 0 .43-.94l-.91-8.52 9.63-8.23 2.06-1.76 5.4 9.48a1 1 0 0 0 1.37.37 1 1 0 0 0 .37-1.36l-5.59-9.78 6.73-5.75.64 2.37a1 1 0 0 0 1.22.71zm-34.36-15.55 1.49-2.56 21.8 5.82-5.75 6.74zm32.41 9.92-8.57 7.31-3 2.55-10 8.58a1 1 0 0 0 -.34.87l.9 8.45-.59.4-2.97-6.58a1 1 0 0 0 -.21-.3l-3.09-3.09a1 1 0 0 0 -.29-.2l-6.56-2.94.4-.59 8.46.9a1 1 0 0 0 .87-.34l18.42-21.61 2.86-3.34a16.5 16.5 0 0 1 6.69-4 16.12 16.12 0 0 1 5.07-.72 16.8 16.8 0 0 1 -.79 5.17 17 17 0 0 1 -3.83 6.57z"/><path d="m40.07 18.36-10.61 9.19a1 1 0 0 0 1.31 1.51l10.61-9.19a1 1 0 0 0 -1.31-1.51z"/><path d="m18.83 36.77-2 2a1 1 0 0 0 0 1.41 1 1 0 0 0 .7.3 1 1 0 0 0 .71-.3l2-2a1 1 0 0 0 -1.41-1.41z"/></g></svg>